<svg id="svg" version="1.1" xmlns="http://www.w3.org/2000/svg" xmlns:xlink="http://www.w3.org/1999/xlink" width="400" height="400" viewBox="0, 0, 400,400"><g id="svgg"><path id="path0" d="M190.718 23.015 C 190.600 23.134,187.105 23.418,182.951 23.647 C 167.645 24.491,154.137 25.905,137.400 28.416 C 131.140 29.355,130.055 29.537,123.200 30.800 C 122.210 30.982,120.320 31.328,119.000 31.568 C 101.567 34.735,81.683 39.994,63.860 46.153 C 52.384 50.118,53.537 49.128,52.401 56.000 C 52.165 57.430,51.790 59.680,51.568 61.000 C 51.346 62.320,51.009 64.480,50.819 65.800 C 50.629 67.120,50.187 70.180,49.838 72.600 C 43.438 116.897,42.894 157.045,48.206 193.000 C 49.238 199.987,50.387 206.280,51.600 211.600 C 51.776 212.370,52.136 213.990,52.400 215.200 C 53.186 218.799,54.098 222.527,54.773 224.900 C 55.441 227.249,55.963 229.072,56.433 230.700 C 56.671 231.525,56.962 232.697,57.079 233.305 C 57.196 233.913,57.451 234.508,57.646 234.629 C 57.841 234.749,58.000 235.276,58.000 235.800 C 58.000 236.324,58.180 236.864,58.400 237.000 C 58.620 237.136,58.800 237.676,58.800 238.200 C 58.800 238.724,58.980 239.264,59.200 239.400 C 59.420 239.536,59.600 240.076,59.600 240.600 C 59.600 241.124,59.780 241.664,60.000 241.800 C 60.220 241.936,60.400 242.399,60.400 242.829 C 60.400 243.259,60.559 243.923,60.753 244.305 C 61.219 245.221,61.641 246.258,63.394 250.800 C 66.163 257.975,73.262 273.032,74.803 275.000 C 74.975 275.220,75.609 276.300,76.210 277.400 C 79.235 282.929,90.147 299.376,92.001 301.200 C 92.113 301.310,92.696 302.059,93.296 302.865 C 93.897 303.671,94.616 304.571,94.896 304.865 C 95.175 305.159,96.210 306.390,97.196 307.600 C 103.548 315.399,116.241 327.735,125.800 335.400 C 128.440 337.518,130.917 339.508,131.305 339.825 C 131.692 340.141,132.172 340.400,132.371 340.400 C 132.570 340.400,132.793 340.554,132.867 340.743 C 133.558 342.523,156.452 356.343,169.600 362.918 C 177.316 366.776,178.600 367.379,182.600 369.020 C 183.480 369.381,184.830 369.947,185.600 370.279 C 186.370 370.610,187.360 371.019,187.800 371.187 C 188.240 371.355,189.140 371.721,189.800 372.000 C 190.460 372.279,191.450 372.684,192.000 372.900 C 192.550 373.116,193.313 373.452,193.695 373.647 C 194.077 373.841,194.664 374.000,195.000 374.000 C 195.336 374.000,195.923 374.159,196.305 374.353 C 196.687 374.548,197.540 374.944,198.200 375.234 C 198.860 375.525,199.535 375.826,199.700 375.905 C 199.865 375.983,200.000 296.567,200.000 199.424 L 200.000 22.800 195.467 22.800 C 192.973 22.800,190.836 22.897,190.718 23.015 " stroke="none" fill="#54acec" fill-rule="evenodd"></path><path id="path1" d="M174.700 0.272 C 171.776 0.359,169.600 0.589,169.600 0.812 C 169.600 1.039,167.776 1.200,165.200 1.200 C 162.533 1.200,160.800 1.358,160.800 1.600 C 160.800 1.836,159.360 2.000,157.280 2.000 C 155.344 2.000,153.589 2.166,153.380 2.370 C 153.171 2.573,151.650 2.841,150.000 2.964 C 142.194 3.549,140.974 3.687,140.620 4.031 C 140.411 4.234,139.117 4.400,137.744 4.400 C 136.371 4.400,135.136 4.580,135.000 4.800 C 134.864 5.020,133.719 5.200,132.456 5.200 C 131.193 5.200,129.989 5.370,129.780 5.577 C 129.571 5.784,128.373 5.995,127.118 6.045 C 125.863 6.095,124.929 6.285,125.042 6.468 C 125.155 6.650,124.167 6.800,122.847 6.800 C 121.527 6.800,120.336 6.980,120.200 7.200 C 120.064 7.420,119.053 7.600,117.953 7.600 C 116.853 7.600,116.054 7.763,116.177 7.963 C 116.300 8.163,115.366 8.424,114.101 8.545 C 110.532 8.884,109.122 9.092,107.520 9.515 C 106.706 9.731,105.941 9.807,105.819 9.686 C 105.698 9.565,105.194 9.665,104.699 9.908 C 104.205 10.151,103.170 10.435,102.400 10.538 C 101.630 10.641,100.280 10.939,99.400 11.200 C 98.520 11.461,97.170 11.769,96.400 11.885 C 95.630 12.000,94.740 12.298,94.423 12.547 C 93.961 12.910,93.916 12.881,94.200 12.400 C 94.490 11.908,94.446 11.887,93.957 12.282 C 93.630 12.547,92.682 12.810,91.853 12.866 C 91.023 12.922,90.256 13.110,90.148 13.284 C 90.041 13.458,89.344 13.600,88.600 13.600 C 87.856 13.600,87.136 13.780,87.000 14.000 C 86.864 14.220,86.144 14.400,85.400 14.400 C 84.656 14.400,83.936 14.580,83.800 14.800 C 83.664 15.020,83.034 15.200,82.400 15.200 C 81.766 15.200,81.136 15.380,81.000 15.600 C 80.864 15.820,80.123 16.000,79.353 16.000 C 78.521 16.000,78.053 16.162,78.200 16.400 C 78.341 16.628,77.995 16.800,77.397 16.800 C 76.820 16.800,76.019 16.976,75.618 17.190 C 75.217 17.405,74.329 17.623,73.645 17.675 C 72.960 17.727,72.400 17.912,72.400 18.085 C 72.400 18.258,71.860 18.400,71.200 18.400 C 70.540 18.400,70.000 18.560,70.000 18.755 C 70.000 18.950,69.505 19.209,68.900 19.330 C 66.089 19.896,65.345 20.086,64.600 20.429 C 64.160 20.632,63.440 20.862,63.000 20.940 C 62.560 21.018,61.750 21.267,61.200 21.494 C 60.650 21.721,60.065 21.827,59.900 21.729 C 59.735 21.632,59.600 21.743,59.600 21.976 C 59.600 22.209,59.150 22.400,58.600 22.400 C 58.050 22.400,57.600 22.580,57.600 22.800 C 57.600 23.020,57.058 23.200,56.395 23.200 C 55.732 23.200,54.787 23.408,54.295 23.662 C 52.365 24.660,51.982 24.800,51.182 24.800 C 50.726 24.800,50.464 24.980,50.600 25.200 C 50.741 25.428,50.398 25.600,49.804 25.600 C 49.230 25.600,48.252 25.863,47.631 26.184 C 47.010 26.505,46.389 26.655,46.251 26.517 C 46.113 26.379,46.000 26.487,46.000 26.757 C 46.000 27.027,45.832 27.144,45.628 27.017 C 45.423 26.891,45.142 26.970,45.004 27.193 C 44.866 27.417,44.313 27.600,43.776 27.600 C 43.239 27.600,42.800 27.780,42.800 28.000 C 42.800 28.220,42.665 28.379,42.500 28.353 C 42.335 28.327,42.065 28.349,41.900 28.403 C 41.735 28.456,41.465 28.530,41.300 28.567 C 39.962 28.866,38.000 29.729,38.000 30.018 C 38.000 30.215,37.732 30.272,37.403 30.146 C 37.058 30.013,36.699 30.197,36.552 30.581 C 36.412 30.947,36.050 31.151,35.748 31.036 C 35.447 30.920,35.200 31.029,35.200 31.279 C 35.200 31.529,35.083 31.616,34.940 31.473 C 34.796 31.330,34.423 31.525,34.110 31.906 C 33.771 32.320,33.665 32.357,33.847 32.000 C 34.120 31.467,34.067 31.467,33.377 32.000 C 32.270 32.855,31.981 33.326,32.200 33.921 C 32.314 34.233,32.209 34.329,31.937 34.161 C 31.628 33.970,31.547 34.212,31.684 34.927 C 31.794 35.502,31.696 36.035,31.465 36.112 C 31.235 36.188,31.028 36.998,31.006 37.910 C 30.983 38.823,30.849 39.684,30.710 39.824 C 30.570 39.964,30.552 40.331,30.670 40.639 C 30.789 40.948,30.688 41.200,30.446 41.200 C 30.186 41.200,30.068 41.731,30.157 42.500 C 30.239 43.215,30.126 44.025,29.904 44.300 C 29.683 44.575,29.636 44.800,29.800 44.800 C 29.964 44.800,29.880 45.062,29.615 45.382 C 29.349 45.703,29.239 46.140,29.371 46.353 C 29.503 46.566,29.353 47.519,29.037 48.470 C 28.722 49.422,28.464 50.830,28.463 51.600 C 28.462 53.055,28.334 53.706,27.811 54.917 C 27.641 55.312,27.594 55.727,27.707 55.840 C 27.820 55.953,27.661 57.006,27.355 58.180 C 27.048 59.354,26.866 60.919,26.951 61.657 C 27.035 62.396,26.947 63.301,26.755 63.668 C 26.301 64.538,25.663 69.124,25.554 72.317 C 25.506 73.702,25.317 74.928,25.134 75.041 C 24.950 75.154,24.800 76.396,24.800 77.800 C 24.800 79.204,24.620 80.464,24.400 80.600 C 24.180 80.736,24.000 82.446,24.000 84.400 C 24.000 86.354,23.820 88.064,23.600 88.200 C 23.380 88.336,23.200 89.956,23.200 91.800 C 23.200 93.644,23.020 95.264,22.800 95.400 C 22.573 95.540,22.400 97.530,22.400 100.000 C 22.400 102.394,22.246 104.448,22.058 104.564 C 21.870 104.680,21.679 107.341,21.633 110.477 C 21.587 113.613,21.386 116.375,21.187 116.616 C 20.698 117.205,20.672 164.364,21.160 164.952 C 21.365 165.199,21.639 167.740,21.770 170.600 C 22.281 181.779,22.465 184.214,22.826 184.580 C 23.032 184.789,23.200 186.238,23.200 187.800 C 23.200 189.362,23.370 190.811,23.577 191.020 C 23.784 191.229,23.993 192.622,24.041 194.116 C 24.088 195.609,24.278 196.925,24.464 197.039 C 24.649 197.154,24.800 198.169,24.800 199.295 C 24.800 200.422,24.967 201.896,25.172 202.572 C 25.376 203.247,25.720 205.235,25.937 206.988 C 26.153 208.742,26.501 210.234,26.709 210.303 C 26.916 210.372,27.016 211.067,26.930 211.847 C 26.844 212.627,27.021 213.760,27.322 214.364 C 27.624 214.968,27.807 215.877,27.730 216.384 C 27.652 216.890,27.776 217.530,28.005 217.806 C 28.234 218.082,28.445 218.958,28.475 219.754 C 28.505 220.549,28.691 221.200,28.888 221.200 C 29.086 221.200,29.144 221.368,29.017 221.572 C 28.891 221.777,28.959 222.051,29.169 222.181 C 29.379 222.311,29.478 222.796,29.389 223.259 C 29.299 223.723,29.436 224.484,29.693 224.951 C 29.950 225.418,30.177 226.328,30.198 226.973 C 30.218 227.617,30.442 228.214,30.695 228.298 C 30.948 228.383,31.055 228.713,30.932 229.033 C 30.809 229.353,30.893 230.106,31.117 230.707 C 31.341 231.308,31.661 232.160,31.828 232.600 C 31.995 233.040,32.146 233.526,32.165 233.680 C 32.184 233.834,32.425 234.185,32.700 234.460 C 32.975 234.735,33.200 235.543,33.200 236.256 C 33.200 236.969,33.380 237.664,33.600 237.800 C 33.820 237.936,34.000 238.541,34.000 239.144 C 34.000 239.747,34.179 240.419,34.398 240.638 C 34.616 240.856,34.835 241.509,34.883 242.089 C 34.930 242.668,35.112 243.055,35.285 242.948 C 35.458 242.840,35.600 243.393,35.600 244.176 C 35.600 244.959,35.780 245.600,36.000 245.600 C 36.220 245.600,36.400 246.039,36.400 246.576 C 36.400 247.113,36.580 247.664,36.800 247.800 C 37.020 247.936,37.200 248.587,37.200 249.247 C 37.200 249.945,37.367 250.344,37.600 250.200 C 37.838 250.053,38.000 250.529,38.000 251.376 C 38.000 252.159,38.180 252.800,38.400 252.800 C 38.620 252.800,38.800 253.250,38.800 253.800 C 38.800 254.350,38.980 254.800,39.200 254.800 C 39.420 254.800,39.600 255.149,39.600 255.576 C 39.600 256.003,39.780 256.464,40.000 256.600 C 40.220 256.736,40.400 257.287,40.400 257.824 C 40.400 258.361,40.547 258.800,40.728 258.800 C 40.908 258.800,41.300 259.700,41.600 260.800 C 41.900 261.900,42.311 262.800,42.515 262.800 C 42.719 262.800,42.796 263.033,42.687 263.317 C 42.578 263.601,42.733 264.167,43.032 264.576 C 43.330 264.984,43.480 265.471,43.364 265.659 C 43.248 265.847,43.373 266.000,43.643 266.000 C 43.913 266.000,44.015 266.118,43.870 266.263 C 43.725 266.408,43.807 266.768,44.052 267.063 C 44.297 267.358,44.341 267.603,44.149 267.606 C 43.957 267.609,44.020 267.752,44.290 267.923 C 44.559 268.095,44.836 268.606,44.906 269.059 C 44.975 269.512,45.339 270.353,45.716 270.927 C 46.092 271.502,46.400 272.323,46.400 272.753 C 46.400 273.182,46.535 273.593,46.700 273.667 C 47.037 273.816,48.442 276.719,48.295 276.961 C 48.243 277.046,48.543 277.495,48.962 277.958 C 49.381 278.421,49.578 278.800,49.400 278.800 C 49.222 278.800,49.329 279.115,49.638 279.500 C 50.475 280.542,51.199 281.923,51.209 282.495 C 51.214 282.773,51.570 283.450,52.000 284.000 C 52.430 284.550,52.786 285.300,52.791 285.667 C 52.796 286.033,52.946 286.393,53.124 286.467 C 53.302 286.540,54.055 287.680,54.797 289.000 C 55.540 290.320,56.249 291.490,56.374 291.600 C 56.845 292.017,57.600 293.613,57.600 294.195 C 57.600 294.528,57.746 294.800,57.925 294.800 C 58.104 294.800,58.858 295.880,59.600 297.200 C 60.342 298.520,61.107 299.600,61.299 299.600 C 61.490 299.600,61.543 299.769,61.415 299.975 C 61.288 300.182,61.502 300.536,61.892 300.763 C 62.281 300.990,62.420 301.184,62.200 301.194 C 61.980 301.204,62.070 301.383,62.400 301.592 C 62.730 301.800,63.004 302.112,63.008 302.285 C 63.026 303.016,64.579 305.137,64.935 304.916 C 65.149 304.784,65.198 304.879,65.045 305.127 C 64.892 305.374,65.225 305.974,65.784 306.461 C 66.343 306.947,66.800 307.537,66.801 307.772 C 66.801 308.007,67.341 308.830,68.000 309.600 C 68.659 310.370,69.199 311.255,69.199 311.567 C 69.200 311.878,69.319 312.014,69.465 311.869 C 69.759 311.574,71.600 314.103,71.600 314.802 C 71.600 315.047,71.780 315.136,72.000 315.000 C 72.220 314.864,72.400 314.994,72.400 315.288 C 72.400 315.583,72.760 316.083,73.200 316.400 C 73.640 316.717,74.000 317.164,74.000 317.392 C 74.000 317.621,74.741 318.571,75.646 319.504 C 76.551 320.437,77.168 321.200,77.017 321.200 C 76.866 321.200,76.981 321.450,77.271 321.755 C 77.562 322.060,78.610 323.247,79.600 324.392 C 80.590 325.538,81.805 326.851,82.300 327.310 C 82.795 327.769,83.200 328.288,83.200 328.465 C 83.200 328.641,84.325 329.920,85.700 331.308 C 87.075 332.696,88.758 334.496,89.440 335.309 C 90.121 336.122,90.796 336.670,90.940 336.527 C 91.083 336.384,91.200 336.490,91.200 336.762 C 91.200 337.405,92.231 338.436,92.552 338.114 C 92.689 337.978,92.800 338.088,92.800 338.359 C 92.800 339.058,96.786 342.856,97.231 342.581 C 97.434 342.455,97.600 342.639,97.600 342.989 C 97.600 343.339,98.005 343.789,98.500 343.988 C 98.995 344.187,99.258 344.361,99.084 344.375 C 98.911 344.389,99.001 344.651,99.284 344.958 C 99.568 345.265,99.935 345.434,100.100 345.334 C 100.265 345.235,100.400 345.331,100.400 345.549 C 100.400 345.768,100.763 346.061,101.206 346.202 C 101.649 346.343,101.908 346.625,101.782 346.829 C 101.656 347.033,101.728 347.200,101.942 347.200 C 102.156 347.200,103.247 348.069,104.367 349.132 C 105.487 350.194,106.492 350.974,106.602 350.865 C 106.711 350.756,106.800 350.907,106.800 351.200 C 106.800 351.493,106.912 351.621,107.049 351.485 C 107.185 351.348,107.995 351.963,108.849 352.851 C 109.702 353.739,110.400 354.340,110.400 354.187 C 110.400 354.034,111.075 354.573,111.900 355.385 C 112.725 356.197,114.084 357.215,114.919 357.649 C 115.755 358.082,116.539 358.698,116.662 359.018 C 116.785 359.338,117.056 359.600,117.264 359.600 C 117.983 359.600,120.395 361.472,120.098 361.800 C 119.934 361.980,120.013 362.006,120.274 361.856 C 120.535 361.707,121.173 361.993,121.692 362.492 C 122.212 362.992,122.887 363.456,123.193 363.525 C 123.499 363.594,124.031 363.955,124.375 364.328 C 124.719 364.700,125.495 365.260,126.100 365.570 C 126.705 365.881,127.200 366.285,127.200 366.468 C 127.200 366.650,127.470 366.800,127.800 366.800 C 128.130 366.800,128.400 367.010,128.400 367.267 C 128.400 367.523,128.501 367.632,128.625 367.509 C 128.748 367.385,129.311 367.712,129.875 368.234 C 130.439 368.757,131.051 369.092,131.236 368.978 C 131.420 368.864,131.982 369.182,132.485 369.685 C 132.988 370.188,133.542 370.600,133.715 370.600 C 133.888 370.600,134.174 370.835,134.351 371.121 C 134.528 371.408,134.837 371.588,135.037 371.521 C 135.236 371.455,135.812 371.812,136.315 372.315 C 136.818 372.818,137.403 373.122,137.615 372.991 C 137.827 372.860,138.000 372.915,138.000 373.114 C 138.000 373.312,138.855 373.908,139.900 374.437 C 140.945 374.967,141.860 375.535,141.933 375.700 C 142.007 375.865,142.322 376.000,142.633 376.000 C 142.945 376.000,143.200 376.180,143.200 376.400 C 143.200 376.620,143.470 376.800,143.800 376.800 C 144.130 376.800,144.400 376.991,144.400 377.224 C 144.400 377.457,144.560 377.549,144.755 377.428 C 144.950 377.307,145.332 377.477,145.604 377.804 C 145.876 378.132,146.447 378.400,146.873 378.400 C 147.299 378.400,147.536 378.580,147.400 378.800 C 147.264 379.020,147.523 379.200,147.976 379.200 C 148.429 379.200,148.800 379.380,148.800 379.600 C 148.800 379.820,149.250 380.000,149.800 380.000 C 150.350 380.000,150.800 380.159,150.800 380.354 C 150.800 380.763,161.406 386.103,162.600 386.295 C 163.040 386.365,163.460 386.598,163.533 386.812 C 163.607 387.025,164.012 387.200,164.433 387.200 C 164.855 387.200,165.200 387.341,165.200 387.513 C 165.200 387.685,166.001 388.062,166.979 388.351 C 167.958 388.640,168.816 389.047,168.885 389.256 C 168.955 389.465,169.414 389.666,169.906 389.703 C 170.398 389.740,170.800 389.912,170.800 390.085 C 170.800 390.258,171.049 390.400,171.354 390.400 C 171.659 390.400,172.424 390.669,173.054 390.998 C 173.684 391.326,174.616 391.596,175.124 391.598 C 175.637 391.599,175.937 391.778,175.800 392.000 C 175.660 392.227,175.996 392.400,176.576 392.400 C 177.139 392.400,177.600 392.580,177.600 392.800 C 177.600 393.020,178.050 393.200,178.600 393.200 C 179.150 393.200,179.600 393.380,179.600 393.600 C 179.600 393.820,179.955 394.000,180.388 394.000 C 180.821 394.000,181.817 394.360,182.600 394.800 C 183.383 395.240,184.379 395.600,184.812 395.600 C 185.245 395.600,185.600 395.780,185.600 396.000 C 185.600 396.220,186.140 396.400,186.800 396.400 C 187.460 396.400,188.000 396.580,188.000 396.800 C 188.000 397.020,188.349 397.200,188.776 397.200 C 189.203 397.200,189.664 397.380,189.800 397.600 C 189.936 397.820,190.577 398.000,191.224 398.000 C 191.871 398.000,192.400 398.180,192.400 398.400 C 192.400 398.620,192.925 398.800,193.567 398.800 C 194.208 398.800,194.808 399.025,194.900 399.300 C 195.021 399.664,196.409 399.800,200.000 399.800 C 203.591 399.800,204.979 399.664,205.100 399.300 C 205.192 399.025,205.792 398.800,206.433 398.800 C 207.075 398.800,207.600 398.620,207.600 398.400 C 207.600 398.180,208.129 398.000,208.776 398.000 C 209.423 398.000,210.064 397.820,210.200 397.600 C 210.336 397.380,210.797 397.200,211.224 397.200 C 211.651 397.200,212.000 397.020,212.000 396.800 C 212.000 396.580,212.540 396.400,213.200 396.400 C 213.860 396.400,214.400 396.220,214.400 396.000 C 214.400 395.780,214.755 395.600,215.188 395.600 C 215.621 395.600,216.617 395.240,217.400 394.800 C 218.183 394.360,219.179 394.000,219.612 394.000 C 220.045 394.000,220.400 393.820,220.400 393.600 C 220.400 393.380,220.850 393.200,221.400 393.200 C 221.950 393.200,222.400 393.020,222.400 392.800 C 222.400 392.580,222.861 392.400,223.424 392.400 C 224.004 392.400,224.340 392.227,224.200 392.000 C 224.063 391.778,224.363 391.599,224.876 391.598 C 225.384 391.596,226.316 391.326,226.946 390.998 C 227.576 390.669,228.341 390.400,228.646 390.400 C 228.951 390.400,229.200 390.258,229.200 390.085 C 229.200 389.912,229.602 389.740,230.094 389.703 C 230.586 389.666,231.045 389.465,231.115 389.256 C 231.184 389.047,232.042 388.640,233.021 388.351 C 233.999 388.062,234.800 387.685,234.800 387.513 C 234.800 387.341,235.145 387.200,235.567 387.200 C 235.988 387.200,236.393 387.025,236.467 386.812 C 236.540 386.598,236.960 386.365,237.400 386.295 C 238.594 386.103,249.200 380.763,249.200 380.354 C 249.200 380.159,249.650 380.000,250.200 380.000 C 250.750 380.000,251.200 379.820,251.200 379.600 C 251.200 379.380,251.571 379.200,252.024 379.200 C 252.477 379.200,252.736 379.020,252.600 378.800 C 252.464 378.580,252.701 378.400,253.127 378.400 C 253.553 378.400,254.124 378.132,254.396 377.804 C 254.668 377.477,255.050 377.307,255.245 377.428 C 255.440 377.549,255.600 377.457,255.600 377.224 C 255.600 376.991,255.870 376.800,256.200 376.800 C 256.530 376.800,256.800 376.620,256.800 376.400 C 256.800 376.180,257.055 376.000,257.367 376.000 C 257.678 376.000,257.993 375.865,258.067 375.700 C 258.140 375.535,259.055 374.967,260.100 374.437 C 261.145 373.908,262.000 373.312,262.000 373.114 C 262.000 372.915,262.173 372.860,262.385 372.991 C 262.597 373.122,263.182 372.818,263.685 372.315 C 264.188 371.812,264.764 371.455,264.963 371.521 C 265.163 371.588,265.472 371.408,265.649 371.121 C 265.826 370.835,266.112 370.600,266.285 370.600 C 266.458 370.600,267.012 370.188,267.515 369.685 C 268.018 369.182,268.580 368.864,268.764 368.978 C 268.949 369.092,269.561 368.757,270.125 368.234 C 270.689 367.712,271.252 367.385,271.375 367.509 C 271.499 367.632,271.600 367.523,271.600 367.267 C 271.600 367.010,271.870 366.800,272.200 366.800 C 272.530 366.800,272.800 366.650,272.800 366.468 C 272.800 366.285,273.295 365.881,273.900 365.570 C 274.505 365.260,275.281 364.700,275.625 364.328 C 275.969 363.955,276.501 363.594,276.807 363.525 C 277.113 363.456,277.788 362.992,278.308 362.492 C 278.827 361.993,279.465 361.707,279.726 361.856 C 279.987 362.006,280.066 361.980,279.902 361.800 C 279.605 361.472,282.017 359.600,282.736 359.600 C 282.944 359.600,283.215 359.338,283.338 359.018 C 283.461 358.698,284.245 358.082,285.081 357.649 C 285.916 357.215,287.275 356.197,288.100 355.385 C 288.925 354.573,289.600 354.034,289.600 354.187 C 289.600 354.340,290.298 353.739,291.151 352.851 C 292.005 351.963,292.815 351.348,292.951 351.485 C 293.088 351.621,293.200 351.493,293.200 351.200 C 293.200 350.907,293.289 350.756,293.398 350.865 C 293.508 350.974,294.513 350.194,295.633 349.132 C 296.753 348.069,297.844 347.200,298.058 347.200 C 298.272 347.200,298.344 347.033,298.218 346.829 C 298.092 346.625,298.351 346.343,298.794 346.202 C 299.237 346.061,299.600 345.768,299.600 345.549 C 299.600 345.331,299.735 345.235,299.900 345.334 C 300.065 345.434,300.432 345.265,300.716 344.958 C 300.999 344.651,301.089 344.389,300.916 344.375 C 300.742 344.361,301.005 344.187,301.500 343.988 C 301.995 343.789,302.400 343.339,302.400 342.989 C 302.400 342.639,302.566 342.455,302.769 342.581 C 303.214 342.856,307.200 339.058,307.200 338.359 C 307.200 338.088,307.311 337.978,307.448 338.114 C 307.769 338.436,308.800 337.405,308.800 336.762 C 308.800 336.490,308.917 336.384,309.060 336.527 C 309.204 336.670,309.879 336.122,310.560 335.309 C 311.242 334.496,312.925 332.696,314.300 331.308 C 315.675 329.920,316.800 328.641,316.800 328.465 C 316.800 328.288,317.205 327.769,317.700 327.310 C 318.195 326.851,319.410 325.538,320.400 324.392 C 321.390 323.247,322.438 322.060,322.729 321.755 C 323.019 321.450,323.134 321.200,322.983 321.200 C 322.832 321.200,323.449 320.437,324.354 319.504 C 325.259 318.571,326.000 317.621,326.000 317.392 C 326.000 317.164,326.360 316.717,326.800 316.400 C 327.240 316.083,327.600 315.583,327.600 315.288 C 327.600 314.994,327.780 314.864,328.000 315.000 C 328.220 315.136,328.400 315.001,328.400 314.699 C 328.400 314.398,328.760 313.764,329.200 313.292 C 329.640 312.820,330.000 312.235,330.000 311.993 C 330.000 311.751,330.180 311.664,330.400 311.800 C 330.620 311.936,330.800 311.812,330.801 311.524 C 330.801 311.236,331.341 310.370,332.000 309.600 C 332.659 308.830,333.199 308.007,333.199 307.772 C 333.200 307.537,333.657 306.947,334.216 306.461 C 334.775 305.974,335.108 305.374,334.955 305.127 C 334.802 304.879,334.851 304.784,335.065 304.916 C 335.421 305.137,336.974 303.016,336.992 302.285 C 336.996 302.112,337.270 301.800,337.600 301.592 C 337.930 301.383,338.020 301.204,337.800 301.194 C 337.580 301.184,337.719 300.990,338.108 300.763 C 338.498 300.536,338.712 300.182,338.585 299.975 C 338.457 299.769,338.510 299.600,338.701 299.600 C 338.893 299.600,339.658 298.520,340.400 297.200 C 341.142 295.880,341.896 294.800,342.075 294.800 C 342.254 294.800,342.400 294.528,342.400 294.195 C 342.400 293.613,343.155 292.017,343.626 291.600 C 343.751 291.490,344.460 290.320,345.203 289.000 C 345.945 287.680,346.698 286.540,346.876 286.467 C 347.054 286.393,347.204 286.033,347.209 285.667 C 347.214 285.300,347.570 284.550,348.000 284.000 C 348.430 283.450,348.786 282.773,348.791 282.495 C 348.801 281.923,349.525 280.542,350.362 279.500 C 350.671 279.115,350.778 278.800,350.600 278.800 C 350.422 278.800,350.561 278.485,350.910 278.100 C 351.258 277.715,351.558 277.266,351.577 277.103 C 351.644 276.515,353.006 273.797,353.300 273.667 C 353.465 273.593,353.600 273.182,353.600 272.753 C 353.600 272.323,353.908 271.502,354.284 270.927 C 354.661 270.353,355.025 269.512,355.094 269.059 C 355.164 268.606,355.441 268.095,355.710 267.923 C 355.980 267.752,356.043 267.609,355.851 267.606 C 355.659 267.603,355.703 267.358,355.948 267.063 C 356.193 266.768,356.275 266.408,356.130 266.263 C 355.985 266.118,356.087 266.000,356.357 266.000 C 356.627 266.000,356.752 265.847,356.636 265.659 C 356.520 265.471,356.670 264.984,356.968 264.576 C 357.267 264.167,357.422 263.601,357.313 263.317 C 357.204 263.033,357.281 262.800,357.485 262.800 C 357.689 262.800,358.100 261.900,358.400 260.800 C 358.700 259.700,359.092 258.800,359.272 258.800 C 359.453 258.800,359.600 258.361,359.600 257.824 C 359.600 257.287,359.780 256.736,360.000 256.600 C 360.220 256.464,360.400 256.003,360.400 255.576 C 360.400 255.149,360.580 254.800,360.800 254.800 C 361.020 254.800,361.200 254.350,361.200 253.800 C 361.200 253.250,361.380 252.800,361.600 252.800 C 361.820 252.800,362.000 252.159,362.000 251.376 C 362.000 250.529,362.162 250.053,362.400 250.200 C 362.633 250.344,362.800 249.945,362.800 249.247 C 362.800 248.587,362.980 247.936,363.200 247.800 C 363.420 247.664,363.600 247.113,363.600 246.576 C 363.600 246.039,363.780 245.600,364.000 245.600 C 364.220 245.600,364.400 244.959,364.400 244.176 C 364.400 243.393,364.542 242.840,364.715 242.948 C 364.888 243.055,365.070 242.668,365.117 242.089 C 365.165 241.509,365.384 240.856,365.602 240.638 C 365.821 240.419,366.000 239.747,366.000 239.144 C 366.000 238.541,366.180 237.936,366.400 237.800 C 366.620 237.664,366.800 236.969,366.800 236.256 C 366.800 235.543,367.025 234.735,367.300 234.460 C 367.575 234.185,367.816 233.834,367.835 233.680 C 367.854 233.526,368.005 233.040,368.172 232.600 C 368.339 232.160,368.659 231.308,368.883 230.707 C 369.107 230.106,369.191 229.353,369.068 229.033 C 368.945 228.713,369.052 228.383,369.305 228.298 C 369.558 228.214,369.782 227.617,369.802 226.973 C 369.823 226.328,370.050 225.418,370.307 224.951 C 370.564 224.484,370.701 223.723,370.611 223.259 C 370.522 222.796,370.621 222.311,370.831 222.181 C 371.041 222.051,371.109 221.777,370.983 221.572 C 370.856 221.368,370.914 221.200,371.112 221.200 C 371.309 221.200,371.495 220.549,371.525 219.754 C 371.555 218.958,371.766 218.082,371.995 217.806 C 372.224 217.530,372.348 216.890,372.270 216.384 C 372.193 215.877,372.376 214.968,372.678 214.364 C 372.979 213.760,373.156 212.627,373.070 211.847 C 372.984 211.067,373.084 210.372,373.291 210.303 C 373.499 210.234,373.847 208.742,374.063 206.988 C 374.280 205.235,374.624 203.247,374.828 202.572 C 375.033 201.896,375.200 200.422,375.200 199.295 C 375.200 198.169,375.351 197.154,375.536 197.039 C 375.722 196.925,375.912 195.609,375.959 194.116 C 376.007 192.622,376.216 191.229,376.423 191.020 C 376.630 190.811,376.800 189.362,376.800 187.800 C 376.800 186.238,376.968 184.789,377.174 184.580 C 377.535 184.214,377.719 181.779,378.230 170.600 C 378.361 167.740,378.635 165.199,378.840 164.952 C 379.328 164.364,379.302 117.205,378.813 116.616 C 378.614 116.375,378.413 113.613,378.367 110.477 C 378.321 107.341,378.130 104.680,377.942 104.564 C 377.754 104.448,377.600 102.394,377.600 100.000 C 377.600 97.530,377.427 95.540,377.200 95.400 C 376.980 95.264,376.800 93.644,376.800 91.800 C 376.800 89.956,376.620 88.336,376.400 88.200 C 376.180 88.064,376.000 86.354,376.000 84.400 C 376.000 82.446,375.820 80.736,375.600 80.600 C 375.380 80.464,375.200 79.204,375.200 77.800 C 375.200 76.396,375.050 75.154,374.866 75.041 C 374.683 74.928,374.494 73.702,374.446 72.317 C 374.337 69.124,373.699 64.538,373.245 63.668 C 373.053 63.301,372.965 62.396,373.049 61.657 C 373.134 60.919,372.952 59.354,372.645 58.180 C 372.339 57.006,372.180 55.953,372.293 55.840 C 372.406 55.727,372.359 55.312,372.189 54.917 C 371.666 53.706,371.538 53.055,371.537 51.600 C 371.536 50.830,371.278 49.422,370.963 48.470 C 370.647 47.519,370.497 46.566,370.629 46.353 C 370.761 46.140,370.651 45.703,370.385 45.382 C 370.120 45.062,370.036 44.800,370.200 44.800 C 370.364 44.800,370.317 44.575,370.096 44.300 C 369.874 44.025,369.761 43.215,369.843 42.500 C 369.932 41.731,369.814 41.200,369.554 41.200 C 369.312 41.200,369.211 40.948,369.330 40.639 C 369.448 40.331,369.430 39.964,369.290 39.824 C 369.151 39.684,369.017 38.823,368.994 37.910 C 368.972 36.998,368.765 36.188,368.535 36.112 C 368.304 36.035,368.206 35.502,368.316 34.927 C 368.453 34.212,368.372 33.970,368.063 34.161 C 367.791 34.329,367.686 34.233,367.800 33.921 C 368.019 33.326,367.730 32.855,366.623 32.000 C 365.933 31.467,365.880 31.467,366.153 32.000 C 366.335 32.357,366.229 32.320,365.890 31.906 C 365.577 31.525,365.204 31.330,365.060 31.473 C 364.917 31.616,364.800 31.529,364.800 31.279 C 364.800 31.029,364.553 30.920,364.252 31.036 C 363.950 31.151,363.588 30.947,363.448 30.581 C 363.301 30.197,362.942 30.013,362.597 30.146 C 362.268 30.272,362.000 30.215,362.000 30.018 C 362.000 29.729,360.038 28.866,358.700 28.567 C 358.535 28.530,358.265 28.456,358.100 28.403 C 357.935 28.349,357.665 28.327,357.500 28.353 C 357.335 28.379,357.200 28.220,357.200 28.000 C 357.200 27.780,356.761 27.600,356.224 27.600 C 355.687 27.600,355.134 27.417,354.996 27.193 C 354.858 26.970,354.577 26.891,354.372 27.017 C 354.168 27.144,354.000 27.027,354.000 26.757 C 354.000 26.487,353.887 26.379,353.749 26.517 C 353.611 26.655,352.990 26.505,352.369 26.184 C 351.748 25.863,350.770 25.600,350.196 25.600 C 349.602 25.600,349.259 25.428,349.400 25.200 C 349.536 24.980,349.274 24.800,348.818 24.800 C 348.362 24.800,347.632 24.620,347.195 24.400 C 346.758 24.180,346.042 23.820,345.605 23.600 C 345.168 23.380,344.268 23.200,343.605 23.200 C 342.942 23.200,342.400 23.020,342.400 22.800 C 342.400 22.580,341.950 22.400,341.400 22.400 C 340.850 22.400,340.400 22.209,340.400 21.976 C 340.400 21.743,340.265 21.632,340.100 21.729 C 339.935 21.827,339.350 21.721,338.800 21.494 C 338.250 21.267,337.440 21.018,337.000 20.940 C 336.560 20.862,335.840 20.632,335.400 20.429 C 334.655 20.086,333.911 19.896,331.100 19.330 C 330.495 19.209,330.000 18.950,330.000 18.755 C 330.000 18.560,329.460 18.400,328.800 18.400 C 328.140 18.400,327.600 18.258,327.600 18.085 C 327.600 17.912,327.040 17.727,326.355 17.675 C 325.671 17.623,324.783 17.405,324.382 17.190 C 323.981 16.976,323.180 16.800,322.603 16.800 C 322.005 16.800,321.659 16.628,321.800 16.400 C 321.947 16.162,321.479 16.000,320.647 16.000 C 319.877 16.000,319.136 15.820,319.000 15.600 C 318.864 15.380,318.234 15.200,317.600 15.200 C 316.966 15.200,316.336 15.020,316.200 14.800 C 316.064 14.580,315.344 14.400,314.600 14.400 C 313.856 14.400,313.136 14.220,313.000 14.000 C 312.864 13.780,312.144 13.600,311.400 13.600 C 310.656 13.600,309.959 13.458,309.852 13.284 C 309.744 13.110,308.977 12.922,308.147 12.866 C 307.318 12.810,306.370 12.547,306.043 12.282 C 305.554 11.887,305.510 11.908,305.800 12.400 C 306.084 12.881,306.039 12.910,305.577 12.547 C 305.260 12.298,304.370 12.000,303.600 11.885 C 302.830 11.769,301.480 11.461,300.600 11.200 C 299.720 10.939,298.370 10.641,297.600 10.538 C 296.830 10.435,295.795 10.151,295.301 9.908 C 294.806 9.665,294.302 9.565,294.181 9.686 C 294.059 9.807,293.294 9.731,292.480 9.515 C 290.878 9.092,289.468 8.884,285.899 8.545 C 284.634 8.424,283.700 8.163,283.823 7.963 C 283.946 7.763,283.147 7.600,282.047 7.600 C 280.947 7.600,279.936 7.420,279.800 7.200 C 279.664 6.980,278.473 6.800,277.153 6.800 C 275.833 6.800,274.845 6.650,274.958 6.468 C 275.071 6.285,274.137 6.095,272.882 6.045 C 271.627 5.995,270.429 5.784,270.220 5.577 C 270.011 5.370,268.807 5.200,267.544 5.200 C 266.281 5.200,265.136 5.020,265.000 4.800 C 264.864 4.580,263.629 4.400,262.256 4.400 C 260.883 4.400,259.589 4.234,259.380 4.031 C 259.026 3.687,257.806 3.549,250.000 2.964 C 248.350 2.841,246.829 2.573,246.620 2.370 C 246.411 2.166,244.656 2.000,242.720 2.000 C 240.640 2.000,239.200 1.836,239.200 1.600 C 239.200 1.358,237.478 1.200,234.833 1.200 C 231.854 1.200,230.417 1.051,230.311 0.732 C 230.155 0.265,186.948 -0.092,174.700 0.272 M214.600 22.411 C 226.678 23.069,238.641 24.247,254.800 26.369 C 259.885 27.037,269.262 28.521,275.200 29.597 C 276.630 29.856,278.610 30.215,279.600 30.394 C 282.065 30.840,285.440 31.517,287.600 32.000 C 288.590 32.221,290.300 32.581,291.400 32.800 C 297.966 34.106,306.527 36.176,315.400 38.601 C 316.500 38.902,318.480 39.433,319.800 39.782 C 321.120 40.130,322.650 40.570,323.200 40.759 C 323.750 40.948,326.090 41.683,328.400 42.393 C 330.710 43.102,332.913 43.844,333.295 44.041 C 333.677 44.239,334.316 44.400,334.715 44.400 C 335.114 44.400,335.611 44.543,335.820 44.718 C 336.029 44.893,336.920 45.270,337.800 45.555 C 345.054 47.907,347.146 48.871,347.558 50.051 C 348.066 51.510,350.839 68.322,351.986 76.900 C 353.949 91.589,354.808 100.415,355.988 118.000 C 356.528 126.063,356.526 156.887,355.984 164.600 C 355.054 177.844,353.880 188.014,351.967 199.400 C 349.460 214.318,343.424 236.998,339.618 245.800 C 339.428 246.240,338.461 248.678,337.470 251.218 C 332.790 263.206,325.313 277.733,318.238 288.582 C 294.863 324.425,257.490 354.187,214.400 371.275 C 212.750 371.929,210.860 372.703,210.200 372.996 C 204.993 375.300,200.221 376.843,199.440 376.474 C 198.978 376.256,197.520 375.683,196.200 375.200 C 194.880 374.717,193.440 374.178,193.000 374.001 C 192.560 373.825,191.570 373.451,190.800 373.170 C 190.030 372.888,188.500 372.258,187.400 371.768 C 186.300 371.279,184.263 370.418,182.874 369.856 C 131.151 348.939,87.487 307.982,67.034 261.200 C 66.409 259.770,65.577 257.880,65.185 257.000 C 42.693 206.462,37.860 138.887,51.039 59.200 C 52.616 49.670,52.817 49.152,55.280 48.280 C 56.226 47.945,59.340 46.835,62.200 45.811 C 72.381 42.170,87.835 37.765,102.400 34.353 C 106.842 33.312,108.633 32.934,115.400 31.606 C 116.720 31.347,118.520 30.982,119.400 30.794 C 120.280 30.607,122.170 30.253,123.600 30.008 C 125.030 29.764,127.100 29.397,128.200 29.194 C 129.300 28.991,131.460 28.625,133.000 28.382 C 134.540 28.139,136.790 27.783,138.000 27.590 C 142.156 26.930,150.512 25.822,155.800 25.230 C 166.449 24.037,165.891 24.090,181.869 22.795 C 184.547 22.578,188.777 22.380,191.269 22.357 C 193.761 22.333,196.880 22.187,198.200 22.032 C 200.755 21.732,203.174 21.788,214.600 22.411 " stroke="none" fill="#cbd3dc" fill-rule="evenodd"></path><path id="path2" d="M200.100 199.300 C 200.200 375.545,200.201 375.800,201.000 375.681 C 203.595 375.293,222.932 367.129,231.753 362.696 C 281.790 337.553,317.012 300.393,336.299 252.400 C 338.804 246.167,342.578 235.378,343.996 230.400 C 344.278 229.410,344.663 228.060,344.852 227.400 C 347.454 218.317,349.718 207.997,351.564 196.800 C 357.934 158.153,357.127 113.213,349.168 63.500 C 347.548 53.381,346.890 49.924,346.522 49.603 C 346.103 49.236,335.200 45.345,328.800 43.278 C 304.126 35.308,273.574 28.965,243.800 25.630 C 235.170 24.663,232.672 24.419,227.200 24.007 C 224.010 23.766,219.409 23.396,216.977 23.185 C 214.544 22.973,209.728 22.800,206.276 22.800 L 199.999 22.800 200.100 199.300 " stroke="none" fill="#24649c" fill-rule="evenodd"></path><path id="path3" d="M192.800 22.265 C 182.606 22.529,162.322 24.282,149.200 26.034 C 141.777 27.025,140.063 27.263,138.000 27.590 C 136.790 27.783,134.540 28.139,133.000 28.382 C 131.460 28.625,129.300 28.991,128.200 29.194 C 127.100 29.397,125.030 29.766,123.600 30.014 C 121.209 30.429,119.836 30.696,115.400 31.607 C 114.520 31.787,112.720 32.144,111.400 32.400 C 97.638 35.066,74.950 41.251,62.200 45.811 C 59.340 46.835,56.226 47.945,55.280 48.280 C 52.817 49.152,52.616 49.670,51.039 59.200 C 37.860 138.887,42.693 206.462,65.185 257.000 C 65.577 257.880,66.409 259.770,67.034 261.200 C 85.725 303.952,121.993 340.367,168.760 363.339 C 177.250 367.509,178.527 368.099,182.874 369.856 C 184.263 370.418,186.300 371.279,187.400 371.768 C 188.500 372.258,190.030 372.888,190.800 373.170 C 191.570 373.451,192.560 373.825,193.000 374.001 C 193.440 374.178,194.880 374.714,196.200 375.193 C 197.520 375.672,198.915 376.231,199.300 376.435 C 199.739 376.668,200.000 376.663,200.000 376.422 C 200.000 376.211,199.325 375.744,198.500 375.385 C 197.675 375.026,196.687 374.568,196.305 374.366 C 195.923 374.165,195.336 374.000,195.000 374.000 C 194.664 374.000,194.077 373.841,193.695 373.647 C 192.960 373.273,191.201 372.524,189.700 371.946 C 188.128 371.341,187.039 370.898,185.600 370.279 C 184.830 369.947,183.480 369.381,182.600 369.020 C 178.600 367.379,177.316 366.776,169.600 362.918 C 156.452 356.343,133.558 342.523,132.867 340.743 C 132.793 340.554,132.570 340.400,132.371 340.400 C 132.172 340.400,131.692 340.141,131.305 339.825 C 130.917 339.508,128.440 337.518,125.800 335.400 C 116.241 327.735,103.548 315.399,97.196 307.600 C 96.210 306.390,95.175 305.159,94.896 304.865 C 94.616 304.571,93.897 303.671,93.296 302.865 C 92.696 302.059,92.113 301.310,92.001 301.200 C 90.147 299.376,79.235 282.929,76.210 277.400 C 75.609 276.300,74.975 275.220,74.803 275.000 C 73.262 273.032,66.163 257.975,63.394 250.800 C 61.641 246.258,61.219 245.221,60.753 244.305 C 60.559 243.923,60.400 243.259,60.400 242.829 C 60.400 242.399,60.220 241.936,60.000 241.800 C 59.780 241.664,59.600 241.124,59.600 240.600 C 59.600 240.076,59.420 239.536,59.200 239.400 C 58.980 239.264,58.800 238.724,58.800 238.200 C 58.800 237.676,58.620 237.136,58.400 237.000 C 58.180 236.864,58.000 236.324,58.000 235.800 C 58.000 235.276,57.841 234.749,57.646 234.629 C 57.451 234.508,57.196 233.913,57.079 233.305 C 56.962 232.697,56.681 231.570,56.455 230.800 C 54.492 224.100,53.570 220.556,52.400 215.200 C 52.136 213.990,51.776 212.370,51.600 211.600 C 50.387 206.280,49.238 199.987,48.206 193.000 C 42.894 157.045,43.438 116.897,49.838 72.600 C 50.187 70.180,50.629 67.120,50.819 65.800 C 51.009 64.480,51.346 62.320,51.568 61.000 C 51.790 59.680,52.165 57.430,52.401 56.000 C 53.537 49.128,52.384 50.118,63.860 46.153 C 81.683 39.994,101.567 34.735,119.000 31.568 C 120.320 31.328,122.210 30.982,123.200 30.800 C 130.898 29.382,133.663 28.935,143.000 27.598 C 158.779 25.338,175.383 23.835,194.300 22.955 C 197.435 22.809,200.000 22.535,200.000 22.345 C 200.000 22.155,199.235 22.037,198.300 22.083 C 197.365 22.129,194.890 22.210,192.800 22.265 " stroke="none" fill="#72b7eb" fill-rule="evenodd"></path><path id="path4" d="M200.238 21.895 C 199.499 22.635,200.602 22.800,206.277 22.800 C 209.729 22.800,214.544 22.973,216.977 23.185 C 219.409 23.396,224.010 23.766,227.200 24.007 C 232.672 24.419,235.170 24.663,243.800 25.630 C 254.230 26.798,264.692 28.347,276.200 30.426 C 293.293 33.514,304.680 36.144,319.600 40.451 C 327.948 42.860,345.720 48.902,346.522 49.603 C 346.890 49.924,347.548 53.381,349.168 63.500 C 357.833 117.623,358.026 164.784,349.755 206.800 C 348.076 215.329,346.667 221.106,343.948 230.600 C 338.860 248.369,330.321 267.688,320.612 283.395 C 299.658 317.295,270.732 343.110,231.753 362.696 C 222.574 367.309,203.020 375.543,200.859 375.706 C 200.138 375.760,199.540 376.800,200.230 376.800 C 200.504 376.800,208.483 373.755,210.200 372.996 C 210.860 372.703,212.750 371.929,214.400 371.275 C 257.490 354.187,294.863 324.425,318.238 288.582 C 325.313 277.733,332.790 263.206,337.470 251.218 C 338.461 248.678,339.428 246.240,339.618 245.800 C 343.424 236.998,349.460 214.318,351.967 199.400 C 353.880 188.014,355.054 177.844,355.984 164.600 C 356.526 156.887,356.528 126.063,355.988 118.000 C 354.995 103.195,353.997 92.287,352.777 82.900 C 351.517 73.203,351.257 71.448,349.382 59.917 C 347.399 47.721,348.432 49.002,337.800 45.555 C 336.920 45.270,336.029 44.893,335.820 44.718 C 335.611 44.543,335.114 44.400,334.715 44.400 C 334.316 44.400,333.677 44.239,333.295 44.041 C 332.913 43.844,330.710 43.102,328.400 42.393 C 326.090 41.683,323.750 40.948,323.200 40.759 C 322.650 40.570,321.120 40.130,319.800 39.782 C 318.480 39.433,316.500 38.902,315.400 38.601 C 306.527 36.176,297.966 34.106,291.400 32.800 C 290.300 32.581,288.590 32.221,287.600 32.000 C 285.440 31.517,282.065 30.840,279.600 30.394 C 278.610 30.215,276.630 29.856,275.200 29.597 C 269.262 28.521,259.885 27.037,254.800 26.369 C 238.641 24.247,226.678 23.069,214.600 22.411 C 201.283 21.685,200.477 21.656,200.238 21.895 " stroke="none" fill="#76a1c2" fill-rule="evenodd"></path></g></svg>